
<!-- OPmobility image -->
<svg version="1.0" xmlns="http://www.w3.org/2000/svg"
 width="100%" height="100%" viewBox="0 0 4603.000000 1300.000000"
 preserveAspectRatio="xMidYMid meet" >
<g transform="translate(0.000000,1575.000000) scale(0.100000,-0.100000)"
fill="#0E3571" stroke="none">
<path d="M6805 15650 c-788 -42 -1558 -315 -2192 -777 -367 -267 -704 -608
-946 -955 -307 -441 -509 -883 -636 -1386 -86 -337 -115 -596 -115 -997 -1
-403 26 -631 114 -990 240 -979 844 -1846 1680 -2414 544 -369 1131 -593 1790
-681 199 -27 659 -38 876 -21 1064 84 1877 524 2578 1396 112 139 395 527
1934 2650 443 611 835 1148 871 1195 89 115 275 305 386 395 249 201 514 330
798 387 147 30 419 31 572 4 558 -101 1021 -444 1269 -941 249 -500 246 -1069
-8 -1573 -19 -38 -66 -116 -105 -173 -255 -380 -641 -638 -1111 -742 -94 -21
-107 -21 -1882 -24 l-1788 -3 0 -2235 0 -2235 1070 0 1070 0 0 1204 0 1205
828 4 c878 5 915 6 1202 58 1555 278 2791 1488 3099 3034 169 846 54 1719
-325 2479 -419 838 -1132 1503 -1991 1855 -699 286 -1489 362 -2169 207 -1124
-255 -2218 -1169 -2981 -2490 -34 -60 -64 -103 -67 -95 -97 305 -161 469 -262
674 -500 1021 -1362 1686 -2474 1909 -184 37 -413 64 -637 76 -215 11 -239 11
-448 0z m472 -2185 c788 -103 1443 -683 1637 -1450 47 -187 59 -309 53 -535
-4 -169 -10 -227 -31 -328 -242 -1139 -1383 -1814 -2489 -1471 -639 197 -1141
731 -1306 1388 -57 224 -72 531 -37 753 37 237 130 499 249 700 307 520 855
878 1450 947 120 14 349 12 474 -4z"/>
<path d="M32008 11059 c-244 -32 -453 -206 -530 -439 -29 -90 -36 -278 -13
-375 53 -228 239 -416 465 -469 96 -23 258 -21 349 4 228 64 395 234 456 465
35 135 14 339 -49 464 -125 245 -399 387 -678 350z"/>
<path d="M35544 11060 c-252 -34 -458 -211 -536 -460 -19 -63 -23 -96 -22
-200 0 -108 4 -136 28 -208 67 -203 228 -354 441 -413 106 -29 296 -24 395 10
157 54 297 177 370 323 186 378 -17 832 -418 932 -77 19 -184 26 -258 16z"/>
<path d="M27150 8295 l0 -2765 515 0 515 0 0 130 c0 72 2 130 5 130 3 0 40
-20 83 -44 207 -117 451 -195 705 -227 122 -15 420 -7 532 14 583 109 1046
438 1334 947 176 310 262 705 232 1057 -38 458 -215 851 -525 1172 -112 115
-201 188 -333 275 -587 385 -1351 405 -1970 52 l-63 -36 0 1030 0 1030 -515 0
-515 0 0 -2765z m2211 -1 c341 -65 621 -330 715 -679 29 -107 27 -342 -4 -449
-89 -311 -321 -551 -622 -644 -425 -131 -892 77 -1086 484 -64 134 -88 242
-88 394 1 188 47 344 146 495 205 312 573 469 939 399z"/>
<path d="M33360 8295 l0 -2765 515 0 515 0 0 2765 0 2765 -515 0 -515 0 0
-2765z"/>
<path d="M37310 9825 l0 -545 -355 0 -355 0 0 -465 0 -465 354 0 355 0 4 -827
c3 -887 4 -904 58 -1115 158 -625 614 -948 1339 -948 425 0 795 109 1152 339
49 31 88 60 88 65 0 8 -367 796 -375 804 -1 1 -51 -25 -111 -58 -215 -119
-418 -182 -589 -183 -275 -1 -444 127 -511 388 -16 63 -18 140 -21 802 l-4
733 578 2 578 3 0 460 0 460 -577 3 -578 2 0 545 0 545 -515 0 -515 0 0 -545z"/>
<path d="M17996 9241 c-277 -398 -631 -759 -1010 -1030 -128 -91 -342 -223
-447 -276 -61 -31 -67 -37 -72 -72 -4 -21 -7 -554 -7 -1185 l0 -1148 515 0
514 0 3 1083 3 1082 27 97 c92 335 318 508 663 508 328 0 582 -167 690 -455
61 -161 58 -104 62 -1257 l4 -1058 509 0 509 0 3 1058 3 1057 27 99 c99 361
355 556 730 556 318 0 548 -164 641 -455 46 -143 47 -169 47 -1271 l0 -1044
515 0 515 0 0 1158 c0 1194 -4 1316 -41 1491 -92 424 -340 750 -713 938 -95
48 -278 107 -411 133 -273 52 -651 42 -920 -26 -342 -86 -654 -274 -834 -503
-36 -45 -68 -80 -72 -79 -3 2 -34 38 -69 81 -255 318 -721 532 -1209 555
l-145 7 -30 -44z"/>
<path d="M24601 9279 c-737 -77 -1365 -582 -1599 -1284 -153 -458 -123 -965
83 -1400 152 -322 363 -567 659 -766 209 -141 423 -231 683 -286 119 -25 145
-27 368 -27 223 0 249 2 368 27 389 83 712 258 984 534 310 315 500 740 532
1189 40 567 -169 1104 -582 1501 -393 378 -952 568 -1496 512z m345 -980 c212
-37 416 -156 554 -321 72 -87 151 -242 181 -353 29 -106 32 -325 6 -429 -70
-281 -254 -506 -510 -626 -242 -114 -522 -114 -764 0 -339 159 -551 509 -530
875 8 132 36 238 97 360 127 254 360 432 640 490 80 16 246 19 326 4z"/>
<path d="M31590 7405 l0 -1875 515 0 515 0 0 1875 0 1875 -515 0 -515 0 0
-1875z"/>
<path d="M35127 9273 c-4 -3 -7 -847 -7 -1875 l0 -1868 520 0 520 0 -2 1873
-3 1872 -511 3 c-281 1 -514 -1 -517 -5z"/>
<path d="M39850 9271 c0 -4 358 -662 796 -1461 l796 -1452 -641 -1153 c-353
-634 -641 -1156 -641 -1159 0 -3 255 -5 566 -4 l566 3 1409 2610 c775 1436
1409 2613 1409 2618 0 4 -254 6 -565 5 l-566 -3 -480 -927 c-265 -511 -484
-926 -488 -923 -5 2 -230 421 -502 930 l-494 925 -582 0 c-321 0 -583 -4 -583
-9z"/>
</g>
</svg>
