<?xml version="1.0" encoding="utf-8"?>
<!-- Generator: Adobe Illustrator 13.0.0, SVG Export Plug-In . SVG Version: 6.00 Build 14948)  -->
<!DOCTYPE svg PUBLIC "-//W3C//DTD SVG 1.0//EN" "http://www.w3.org/TR/2001/REC-SVG-20010904/DTD/svg10.dtd">
<svg version="1.0" id="Capa_1" xmlns="http://www.w3.org/2000/svg" xmlns:xlink="http://www.w3.org/1999/xlink" x="0px" y="0px"
	 width="66.124px" height="53.266px" viewBox="0 0 66.124 53.266" enable-background="new 0 0 66.124 53.266" xml:space="preserve"  style="background: #FFFFFF;">
<g>
	<path fill="#0E3571" d="M38.075,19.438l-6.87,9.887C21.568,41.536,0.465,35.589,0,17.813h9.483c0,4.662,3.775,8.438,8.438,8.438
		c4.658,0,8.437-3.775,8.437-8.438c0-4.66-3.779-8.438-8.437-8.438c-4.663,0-8.438,4.071-8.438,8.438H0
		C0.624-2.324,28.259-6.833,33.368,11.788c-0.464,1.779,5.206-11.889,16.341-11.58c19.006-0.387,24.358,31.613,0.612,33.478h-6.484
		v10.468h-9.274V24.767h14.831c3.516,0,5.324-2.637,5.361-2.678c5.191-5.344-1.749-17.003-10.573-10.534
		C42.036,13.37,38.733,18.453,38.075,19.438l-0.611,0.924"/>
</g>
</svg>
