<?xml version="1.0" encoding="utf-8"?>
<!-- Generator: Adobe Illustrator 13.0.0, SVG Export Plug-In . SVG Version: 6.00 Build 14948)  -->
<!DOCTYPE svg PUBLIC "-//W3C//DTD SVG 1.0//EN" "http://www.w3.org/TR/2001/REC-SVG-20010904/DTD/svg10.dtd">
<svg version="1.0" id="Capa_1" xmlns="http://www.w3.org/2000/svg" xmlns:xlink="http://www.w3.org/1999/xlink" x="0px" y="0px"
	 width="66.124px" height="53.266px" viewBox="0 0 66.124 53.266" enable-background="new 0 0 66.124 53.266" xml:space="preserve">
<g>
	<path fill="#007AFF" d="M9.499,53.118H6.561v-5.106H7.5c0.006-0.001,0,4.43,0,4.43h2.026L9.499,53.118"/>
	<path fill="#007AFF" d="M18.345,49.505c0.005-0.774-0.776-1.625-1.875-1.625c-1.267,0-1.977,0.583-1.977,1.42
		c0,1.709,3.065,1.065,3.078,2.268c0.007,0.545-0.386,0.89-1.101,0.89c-0.874,0-1.292-0.676-1.292-1.429l-0.95-0.006
		c-0.008,1.154,0.764,2.15,2.271,2.15c1.492,0,2.01-0.738,2.01-1.623c0-1.799-3.117-1.394-3.117-2.215
		c0-0.498,0.299-0.815,1.054-0.815c0.714,0,0.903,0.563,0.956,0.985H18.345"/>
	<path fill="#007AFF" d="M55.572,53.25c1.245,0,1.923-0.604,1.923-1.758v-3.494h-0.9v3.123c0,0.505-0.064,1.413-1.022,1.413
		c-0.964,0-1.028-0.908-1.028-1.413v-3.123h-0.896v3.494C53.647,52.703,54.403,53.25,55.572,53.25"/>
	<polygon fill="#007AFF" points="11.478,51.228 10.791,51.228 11.496,48.989 11.513,48.989 12.207,51.228 11.478,51.228 
		11.478,51.872 12.439,51.872 12.882,53.117 13.798,53.117 11.961,48.005 10.962,48.002 9.226,53.11 10.081,53.117 10.558,51.872 
		11.478,51.872 	"/>
	<path fill="#007AFF" d="M28.305,49.88c0-0.603-0.45-1.272-1.219-1.272c-1.085,0-1.541,0.644-1.541,1.952
		c0,1.247,0.726,1.917,1.523,1.917c0.879,0,1.162-0.67,1.178-1.39h1.033c0.006,1.078-0.69,2.179-2.193,2.179
		c-1.492,0-2.539-1-2.539-2.706s1.047-2.701,2.539-2.701c1.127,0,2.221,0.82,2.221,2.025L28.305,49.88"/>
	<path fill="#007AFF" d="M37.634,51.686c0.156-0.234,0.222-0.558,0.222-1.127c0-1.336-0.631-1.99-1.627-1.99
		c-0.967,0-1.631,0.731-1.631,1.99c0,1.25,0.703,1.953,1.648,1.953C36.961,52.512,37.47,52.204,37.634,51.686h0.979
		c-0.381,1.011-1.261,1.58-2.384,1.58c-1.49,0-2.611-1.119-2.611-2.723c0-1.706,1.121-2.686,2.611-2.686
		c1.491,0,2.593,0.956,2.593,2.666c0,0.457-0.108,0.812-0.209,1.162H37.634"/>
	<path fill="#007AFF" d="M3.027,49.514v-0.853h0.866c0.597,0,1.164,0.117,1.164,0.821c0,0.545-0.496,0.831-1.024,0.831H3.027V49.514
		H2.072v3.604h0.955v-2.16h1.378c1.16,0,1.553-0.907,1.553-1.479c0-0.689-0.338-1.451-1.388-1.47H2.072v1.489"/>
	<polygon fill="#007AFF" points="18.596,48.011 22.178,48.011 22.178,48.653 20.858,48.653 20.858,53.117 19.951,53.117 
		19.951,48.653 18.596,48.653 	"/>
	<polygon fill="#007AFF" points="47.012,48.011 45.95,48.011 45.95,53.117 46.878,53.117 46.878,49.328 49.047,53.117 
		50.122,53.117 50.122,48.011 49.181,48.011 49.181,51.557 	"/>
	<rect x="22.912" y="48.012" fill="#007AFF" width="0.94" height="5.105"/>
	<rect x="51.515" y="48.012" fill="#007AFF" width="0.946" height="5.105"/>
	<polygon fill="#007AFF" points="42.497,53.126 43.675,49.341 43.696,49.341 43.696,53.126 44.639,53.126 44.639,48.017 
		43.382,48.017 42.122,51.755 42.132,51.755 40.868,48.017 39.614,48.017 39.614,53.126 40.55,53.126 40.55,49.341 41.794,53.126 	
		"/>
	<polygon fill="#007AFF" points="61.45,53.126 62.624,49.341 62.652,49.341 62.652,53.126 63.587,53.126 63.587,48.017 
		62.333,48.017 61.074,51.755 61.081,51.755 59.822,48.017 58.567,48.017 58.567,53.126 59.507,53.126 59.507,49.341 60.745,53.126 
			"/>
	<path fill="#007AFF" d="M38.075,19.438l-6.87,9.887C21.568,41.536,0.465,35.589,0,17.813h9.483c0,4.662,3.775,8.438,8.438,8.438
		c4.658,0,8.437-3.775,8.437-8.438c0-4.66-3.779-8.438-8.437-8.438c-4.663,0-8.438,4.071-8.438,8.438H0
		C0.624-2.324,28.259-6.833,33.368,11.788c-0.464,1.779,5.206-11.889,16.341-11.58c19.006-0.387,24.358,31.613,0.612,33.478h-6.484
		v10.468h-9.274V24.767h14.831c3.516,0,5.324-2.637,5.361-2.678c5.191-5.344-1.749-17.003-10.573-10.534
		C42.036,13.37,38.733,18.453,38.075,19.438l-0.611,0.924"/>
</g>
</svg>
